<svg width="68" height="41" viewBox="0 0 68 41" fill="none" xmlns="http://www.w3.org/2000/svg">
<g clip-path="url(#clip0_2658_992)">
<path d="M48.9281 12.0245C50.3947 9.56338 51.3375 7.26467 51.3375 5.55313C51.3375 3.57924 50.0188 0 45.2308 0C41.8107 0 39.0686 1.76151 37.8608 4.48498C44.5468 4.06022 42.655 16.066 38.8097 21.9939C35.969 14.8979 32.9125 6.57131 30.651 0.593417H21.2598C25.3761 2.0551 28.1738 5.00969 28.1738 9.82573C28.1738 11.5747 27.7979 13.1176 27.1447 14.5231C26.6579 15.5725 26.6024 16.7781 27.0707 17.8337C28.2539 20.526 29.3199 23.2619 30.1765 25.9417C30.0163 30.7452 29.5418 34.693 28.8578 39.2842H40.8618C39.9682 33.8372 39.543 29.3585 39.4938 23.2744C40.1654 22.681 40.8494 22.0314 41.5334 21.3505C41.8046 21.0757 41.9895 20.7196 42.088 20.3448C43.1972 15.8411 45.7299 13.2363 48.9343 12.0307L48.9281 12.0245Z" fill="#AF08CF"/>
<path d="M27.2739 10.5071C27.2739 12.9182 26.5591 14.9608 25.3821 16.7473C20.0826 24.7553 5.2995 27.7162 2.16294 36.6549C2.16294 36.6549 1.30639 38.1728 1.63299 39.4346H0C0 27.1602 17.1679 18.4589 17.1679 8.0522C17.1679 4.26058 14.9002 1.80571 9.95813 1.80571C8.48536 1.80571 6.95097 2.07431 5.58913 2.87386C4.0609 3.7796 4.58469 4.26058 6.32859 4.47296C8.75034 4.79778 10.5374 6.87162 10.5374 9.38271C10.5374 12.1062 8.38061 14.4049 5.64459 14.4049C2.90856 14.4049 0.739465 12.1062 0.739465 8.5894C0.739465 3.7796 4.68944 0.150391 13.1132 0.150391C15.7506 0.150391 18.2278 0.512687 20.3599 1.26851C24.4825 2.73644 27.2739 5.68478 27.2739 10.5071Z" fill="#AF08CF"/>
<path d="M68.0002 12.4739H58.837C57.5183 12.4739 57.0438 11.8867 54.468 11.8867C52.7549 11.8867 51.1034 12.1428 49.606 12.7113C46.2661 13.9668 43.6533 16.7465 42.6242 21.6125C42.3161 23.0742 42.1436 24.717 42.1436 26.566C42.1436 35.6921 46.1428 40.6581 51.3561 40.6581C55.0411 40.6581 57.0931 38.3094 58.5166 32.3877H59.0403C58.7754 35.3236 58.2516 36.8165 57.0931 40.1271H67.994C66.1515 31.2696 66.1515 21.3377 67.994 12.4801L68.0002 12.4739ZM58.2023 19.7323C58.2023 28.696 56.7295 33.4996 54.887 33.4996C53.4142 33.4996 51.9908 30.2452 51.9908 24.3172C51.9908 15.6721 55.0965 13.592 56.939 13.592C57.888 13.592 58.2023 14.1792 58.2023 14.9787V19.7323Z" fill="#AF08CF"/>
<path d="M19.4788 39.9652C15.424 39.9652 9.58224 36.7608 5.63843 36.7608C4.46761 36.7608 3.44468 37.0231 2.68057 37.7352C2.23689 38.1412 1.87948 38.6972 1.63299 39.4343C1.30023 38.1725 2.16294 36.6546 2.16294 36.6546C2.38478 36.3985 2.60662 36.1549 2.83462 35.9237C7.54255 30.9703 12.5894 30.1395 18.1724 30.1395C25.2774 30.1395 26.4852 28.7528 26.4852 26.7227H27.0151C27.8039 33.7749 25.1233 39.959 19.4849 39.959L19.4788 39.9652Z" fill="#FF3D9C"/>
</g>
<defs>
<clipPath id="clip0_2658_992">
<rect width="68" height="40.6522" fill="white"/>
</clipPath>
</defs>
</svg>
